<?xml version="1.0" encoding="UTF-8"?>
<svg id="Logo" xmlns="http://www.w3.org/2000/svg" version="1.1" viewBox="0 0 269.8 230.1">
  <!-- Generator: Adobe Illustrator 30.3.0, SVG Export Plug-In . SVG Version: 2.1.3 Build 182)  -->
  <defs>
    <style>
      .st0 {
        fill: #46217e;
      }
    </style>
  </defs>
  <path class="st0" d="M202.2,2.6H62C28.8,2.6,2,29.5,2,62.6h0c0,33.1,26.9,60,60,60h140.2c33.1,0,60-26.9,60-60h0c0-33.1-26.9-60-60-60h0ZM202.2,43.1c10.8,0,19.5,8.8,19.5,19.5s-8.8,19.5-19.5,19.5H62c-10.8,0-19.5-8.8-19.5-19.5s8.8-19.5,19.5-19.5h140.2"/>
  <path class="st0" d="M236.7,138.6h-55.2c-11.3,0-20.4,9.1-20.4,20.4s9.1,20.4,20.4,20.4h55.2c11.3,0,20.4-9.1,20.4-20.4s-9.1-20.4-20.4-20.4h0Z"/>
  <path class="st0" d="M237.2,220.4c-3.3-3.3-4.9-7.4-4.9-12.5s1.6-9.2,4.9-12.5c3.3-3.3,7.4-4.9,12.5-4.9s9.2,1.6,12.5,4.9c3.3,3.3,4.9,7.4,4.9,12.5s-1.6,9.2-4.9,12.5c-3.3,3.3-7.4,4.9-12.5,4.9s-9.2-1.6-12.5-4.9h0Z"/>
</svg>