<?xml version="1.0" encoding="UTF-8"?>
<svg id="Logo" xmlns="http://www.w3.org/2000/svg" viewBox="0 0 1296.11 230.05">
  <defs>
    <style>
      .cls-1 {
        fill: currentColor;
      }
    </style>
  </defs>
  <path class="cls-1" d="M202.21,2.64H61.96C28.83,2.64,1.98,29.5,1.98,62.63h0c0,33.13,26.86,59.99,59.99,59.99h140.25c33.13,0,59.99-26.86,59.99-59.99h0c0-33.13-26.86-59.99-59.99-59.99h0ZM202.21,43.11c10.76,0,19.52,8.76,19.52,19.52s-8.76,19.52-19.52,19.52H61.96c-10.76,0-19.52-8.76-19.52-19.52s8.76-19.52,19.52-19.52h140.25"/>
  <path class="cls-1" d="M236.73,138.59h-55.19c-11.26,0-20.38,9.13-20.38,20.38s9.13,20.38,20.38,20.38h55.19c11.26,0,20.38-9.13,20.38-20.38s-9.13-20.38-20.38-20.38h0Z"/>
  <path class="cls-1" d="M237.19,220.39c-3.26-3.25-4.88-7.41-4.88-12.45s1.63-9.19,4.88-12.45c3.25-3.25,7.4-4.88,12.45-4.88s9.2,1.63,12.45,4.88c3.25,3.26,4.88,7.41,4.88,12.45s-1.63,9.2-4.88,12.45c-3.26,3.26-7.41,4.88-12.45,4.88s-9.2-1.62-12.45-4.88h0Z"/>
  <path class="cls-1" d="M767.07,220.39c-3.26-3.25-4.88-7.41-4.88-12.45s1.63-9.19,4.88-12.45c3.25-3.25,7.4-4.88,12.45-4.88s9.2,1.63,12.45,4.88c3.25,3.26,4.88,7.41,4.88,12.45s-1.63,9.2-4.88,12.45c-3.26,3.26-7.41,4.88-12.45,4.88s-9.2-1.62-12.45-4.88h0Z"/>
  <path class="cls-1" d="M451.03,50.68c-.51-1.68-1.61-2.53-3.29-2.53h-31.62c-1.69,0-2.78.85-3.29,2.53l-54.9,171.02c-.34,1.18-.25,2.07.25,2.66.51.59,1.27.89,2.28.89h25.3c1.68,0,2.78-.84,3.29-2.53l8.35-27.07c.34-.67.76-1.01,1.27-1.01h66.79c.51,0,.92.34,1.26,1.01l8.35,27.07c.51,1.69,1.6,2.53,3.29,2.53h25.3c1.85,0,2.78-.76,2.78-2.28,0-.51-.09-.93-.25-1.27l-55.15-171.02ZM457.61,171.61h-51.36c-.85,0-1.18-.51-1.01-1.52l25.8-84.75c.17-.67.42-1.01.76-1.01s.59.34.76,1.01l26.06,84.75c.34,1.01,0,1.52-1.01,1.52Z"/>
  <path class="cls-1" d="M563.86,48.15h-23.28c-.85,0-1.56.3-2.15.89-.59.59-.88,1.31-.88,2.15v171.02c0,.85.29,1.56.88,2.15.59.59,1.31.89,2.15.89h23.28c.84,0,1.56-.29,2.15-.89.59-.59.88-1.3.88-2.15V51.19c0-.84-.3-1.56-.88-2.15-.59-.59-1.31-.89-2.15-.89Z"/>
  <path class="cls-1" d="M723.62,152.76c-5.15-6.66-11.3-11.85-18.47-15.56-7.17-3.71-16.74-7.84-28.71-12.4-11.3-4.05-19.65-7.38-25.05-9.99-5.4-2.61-9.45-5.52-12.14-8.73-2.7-3.2-4.05-7.34-4.05-12.4,0-7.08,2.57-12.56,7.72-16.44,5.14-3.88,12.35-5.82,21.63-5.82,11.47,0,20.45,2.74,26.94,8.22,6.49,5.48,9.74,12.19,9.74,20.11v2.78c0,.85.29,1.56.89,2.15.59.59,1.3.89,2.15.89h22.77c.84,0,1.56-.29,2.15-.89.59-.59.89-1.3.89-2.15v-4.3c0-10.29-2.7-19.35-8.1-27.2-5.4-7.84-12.95-13.95-22.64-18.34-9.7-4.38-20.87-6.58-33.52-6.58-18.05,0-32.47,4.3-43.26,12.9-10.8,8.6-16.19,20.33-16.19,35.17,0,9.95,2.49,18.26,7.46,24.92,4.97,6.66,11.17,11.93,18.59,15.81,7.42,3.88,17.12,8.01,29.09,12.4,10.63,4.05,18.59,7.42,23.91,10.12,5.31,2.7,9.4,5.69,12.27,8.98,2.87,3.29,4.3,7.3,4.3,12.02,0,6.92-2.62,12.57-7.84,16.95-5.23,4.39-12.99,6.58-23.27,6.58-11.98,0-21.42-2.57-28.33-7.72-6.92-5.14-10.37-11.59-10.37-19.35v-4.81c0-.84-.3-1.56-.88-2.15-.59-.59-1.31-.89-2.15-.89h-22.52c-.85,0-1.56.3-2.15.89-.59.59-.89,1.31-.89,2.15v6.32c0,10.29,2.66,19.23,7.97,26.82,5.31,7.59,12.86,13.5,22.64,17.71,9.78,4.22,21.25,6.32,34.41,6.32,19.39,0,34.7-4.47,45.92-13.41,11.21-8.94,16.82-21,16.82-36.18,0-9.95-2.57-18.25-7.72-24.92Z"/>
  <g>
    <path class="cls-1" d="M851.02,217.4c-9.3-6.56-15.77-15.39-19.42-26.52-2.66-7.47-3.98-17.43-3.98-29.88s1.33-21.74,3.98-29.38c3.49-10.96,9.92-19.63,19.3-26.02,9.38-6.39,20.46-9.59,33.24-9.59s24.24,3.24,33.86,9.71c9.63,6.47,16.02,14.61,19.17,24.4.83,2.66,1.41,5.32,1.74,7.97v.5c0,1.66-.91,2.66-2.74,2.99l-22.41,3.24h-.5c-1.49,0-2.49-.83-2.99-2.49,0-.83-.09-1.49-.25-1.99-.33-1.33-.67-2.49-1-3.49-1.49-4.65-4.48-8.47-8.96-11.46-4.48-2.99-9.8-4.48-15.94-4.48s-11.66,1.62-16.06,4.86c-4.4,3.24-7.34,7.68-8.84,13.32-1.66,5.31-2.49,12.7-2.49,22.16s.75,16.52,2.24,22.16c1.66,5.81,4.65,10.42,8.96,13.82,4.31,3.4,9.71,5.1,16.18,5.1s11.74-1.62,16.31-4.86c4.56-3.24,7.51-7.59,8.84-13.07.16-.33.25-.75.25-1.25.16-.16.25-.41.25-.75.5-1.99,1.66-2.82,3.49-2.49l22.41,3.49c.83.17,1.53.54,2.12,1.12.58.58.79,1.37.62,2.37-.5,2.66-.91,4.57-1.25,5.73-3.16,10.62-9.55,19.05-19.17,25.27-9.63,6.22-20.92,9.34-33.86,9.34s-23.82-3.28-33.12-9.84Z"/>
    <path class="cls-1" d="M1056.57,107.96c8.05,7.97,12.08,18.84,12.08,32.62v81.67c0,.83-.29,1.54-.87,2.12-.58.58-1.29.87-2.12.87h-22.91c-.83,0-1.54-.29-2.12-.87-.58-.58-.87-1.28-.87-2.12v-75.7c0-7.63-2.16-13.82-6.47-18.55-4.32-4.73-10.05-7.1-17.18-7.1s-12.91,2.33-17.3,6.97c-4.4,4.65-6.6,10.79-6.6,18.43v75.95c0,.83-.29,1.54-.87,2.12s-1.29.87-2.12.87h-22.91c-.83,0-1.54-.29-2.12-.87-.58-.58-.87-1.28-.87-2.12V51.43c0-.83.29-1.53.87-2.12.58-.58,1.28-.87,2.12-.87h22.91c.83,0,1.53.29,2.12.87.58.58.87,1.29.87,2.12v57.53c0,.5.16.83.5,1,.33.17.58,0,.75-.5,6.8-8.96,17.09-13.45,30.88-13.45s24.19,3.98,32.25,11.95Z"/>
    <path class="cls-1" d="M1174.97,101.49c7.97,3.65,14.11,8.68,18.43,15.06,4.32,6.39,6.47,13.66,6.47,21.79v83.91c0,.83-.29,1.54-.87,2.12s-1.29.87-2.12.87h-22.91c-.83,0-1.54-.29-2.12-.87-.58-.58-.87-1.28-.87-2.12v-7.97c0-.5-.17-.79-.5-.87-.33-.08-.67.04-1,.37-8.14,8.96-19.92,13.45-35.36,13.45-12.45,0-22.7-3.15-30.75-9.46-8.05-6.31-12.08-15.69-12.08-28.14s4.52-23.03,13.57-30.25c9.05-7.22,21.79-10.83,38.22-10.83h26.64c.83,0,1.25-.41,1.25-1.25v-5.98c0-6.47-1.91-11.49-5.73-15.06-3.82-3.57-9.55-5.35-17.18-5.35-6.31,0-11.42,1.12-15.31,3.36-3.9,2.24-6.35,5.35-7.35,9.34-.5,1.99-1.66,2.82-3.49,2.49l-24.15-2.99c-.83-.16-1.54-.46-2.12-.87-.58-.41-.79-.95-.62-1.62,1.33-10.12,6.76-18.43,16.31-24.9,9.54-6.47,21.54-9.71,35.98-9.71,10.46,0,19.67,1.83,27.64,5.48ZM1162.27,197.85c5.81-4.31,8.72-9.79,8.72-16.43v-11.7c0-.83-.42-1.24-1.25-1.24h-20.92c-8.8,0-15.73,1.66-20.79,4.98-5.07,3.32-7.59,8.05-7.59,14.19,0,5.32,1.95,9.42,5.85,12.33,3.9,2.91,8.92,4.36,15.06,4.36,8.13,0,15.1-2.16,20.92-6.47Z"/>
    <path class="cls-1" d="M1293.37,120.54c-.58.58-1.29.87-2.12.87h-25.4c-.83,0-1.25.42-1.25,1.25v60.01c0,6.31,1.37,10.87,4.11,13.7,2.74,2.82,7.1,4.23,13.07,4.23h7.47c.83,0,1.53.29,2.12.87.58.58.87,1.29.87,2.12v18.67c0,1.83-1,2.91-2.99,3.24l-12.95.25c-13.12,0-22.91-2.24-29.38-6.72-6.47-4.48-9.8-12.95-9.96-25.4v-70.96c0-.83-.42-1.25-1.25-1.25h-14.19c-.83,0-1.54-.29-2.12-.87-.58-.58-.87-1.28-.87-2.12v-17.43c0-.83.29-1.53.87-2.12.58-.58,1.28-.87,2.12-.87h14.19c.83,0,1.25-.41,1.25-1.25v-32.14c0-.83.29-1.53.87-2.12.58-.58,1.28-.87,2.12-.87h21.66c.83,0,1.53.29,2.12.87.58.58.87,1.29.87,2.12v32.14c0,.83.41,1.25,1.25,1.25h25.4c.83,0,1.53.29,2.12.87.58.58.87,1.29.87,2.12v17.43c0,.83-.29,1.54-.87,2.12Z"/>
  </g>
</svg>